<svg width="313" height="319" viewBox="0 0 313 319" fill="none" xmlns="http://www.w3.org/2000/svg">
<g filter="url(#filter0_dd_2565_8862)">
<path d="M228.296 263.722H84.748C61.8535 263.722 42.7892 246.05 41.1352 223.2L28.1211 46.9642C26.2495 21.5887 46.3148 0 71.7338 0H241.266C266.685 0 286.751 21.5887 284.879 46.9642L271.865 223.2C270.167 246.05 251.147 263.722 228.252 263.722H228.296Z" fill="url(#paint0_linear_2565_8862)"/>
<path d="M140.991 205.704C147.852 213.759 163.526 219.737 177.836 222.697C176.066 220.046 170.103 213.212 170.103 213.212C172.768 213.498 195.1 212.406 199.068 211.968C203.038 211.529 215.758 211.325 225.581 195.11C235.405 178.894 231.081 186.083 234.421 179.692C228.854 184.966 224.602 181.464 216.728 191.261C216.728 191.261 219.923 180.798 213.914 176.71C213.44 179.6 210.931 183.429 208.693 185.794C203.794 190.981 200.347 193.103 194.057 194.958C193.318 195.173 192.744 195.271 192.08 195.218C192.08 195.218 165.774 199.696 167.709 197.649C184.225 176.032 153.912 206.333 140.991 205.704Z" fill="url(#paint1_linear_2565_8862)"/>
<path d="M129.776 58.2968C119.411 56.1722 103.378 61.1084 90.278 67.5826C93.3053 68.5841 102.212 70.2992 102.212 70.2992C99.934 71.7147 83.0066 86.3193 80.1485 89.1083C77.2906 91.8973 67.3914 99.8869 69.6302 118.714C71.8691 137.54 70.8511 129.213 72.1529 136.306C73.2949 128.722 78.8019 128.865 78.9756 116.298C78.9756 116.298 82.8988 126.51 90.1507 126.033C88.7461 123.464 88.3661 118.902 88.6731 115.66C89.3414 108.558 90.7527 104.763 94.5688 99.43C95.0179 98.8052 95.4097 98.3742 95.9658 98.0075C95.9658 98.0075 113.943 78.2866 113.677 81.0903C113.965 108.294 119.206 65.755 129.776 58.2968Z" fill="url(#paint2_linear_2565_8862)"/>
<path d="M219.384 87.7208C218.904 77.1517 210.189 62.8176 200.701 51.7035C200.472 54.8839 200.992 63.9394 200.992 63.9394C199.062 62.0779 180.754 49.2459 177.349 47.1587C173.946 45.0714 163.773 37.4322 146.07 44.2169C128.366 51.0016 136.189 47.9738 129.632 50.9742C137.264 50.2227 138.475 55.5968 150.702 52.6851C150.702 52.6851 141.763 58.9916 144.003 65.9053C146.149 63.9141 150.479 62.4274 153.697 61.9307C160.747 60.838 164.771 61.2761 170.877 63.6688C171.593 63.951 172.107 64.2254 172.598 64.6746C172.598 64.6746 196.124 77.2698 193.341 77.6992C167.037 84.6463 209.564 79.3015 219.384 87.7208Z" fill="url(#paint3_linear_2565_8862)"/>
<path d="M220.806 176.302C230.577 172.245 241.076 159.161 248.286 146.45C245.218 147.32 236.884 150.9 236.884 150.9C237.975 148.45 243.789 126.862 244.589 122.949C245.389 119.037 249.098 106.868 236.678 92.5429C224.259 78.2173 229.776 84.5379 224.717 79.3983C228.029 86.3159 223.391 89.2881 230.3 99.7871C230.3 99.7871 221.321 93.5371 215.587 98.0019C218.191 99.3397 221.066 102.902 222.632 105.758C226.064 112.011 227.026 115.944 226.86 122.499C226.839 123.269 226.757 123.845 226.503 124.461C226.503 124.461 222.691 150.873 221.339 148.402C205.831 126.049 225.368 164.198 220.806 176.302Z" fill="url(#paint4_linear_2565_8862)"/>
<path d="M79.03 138.568C74.2962 148.03 74.916 164.794 77.7802 179.123C79.5309 176.458 83.4921 168.299 83.4921 168.299C84.2699 170.866 93.9974 190.995 95.952 194.478C97.9065 197.959 103.063 209.589 121.828 212.297C140.592 215.006 132.285 213.835 139.473 214.412C132.444 211.348 134.007 206.065 121.912 202.646C121.912 202.646 132.791 201.498 134.207 194.369C131.362 195.061 126.857 194.249 123.805 193.113C117.118 190.63 113.818 188.284 109.653 183.219C109.166 182.624 108.851 182.133 108.641 181.501C108.641 181.501 94.2426 159.034 96.882 160.016C123.234 166.777 83.4997 150.707 79.03 138.568Z" fill="url(#paint5_linear_2565_8862)"/>
<path d="M158.807 178.574C184.629 177.784 204.922 156.211 204.132 130.389C203.343 104.567 181.77 84.2738 155.947 85.0635C130.125 85.8532 109.833 107.426 110.622 133.248C111.412 159.071 132.985 179.363 158.807 178.574Z" fill="#C2D8FF"/>
<path d="M158.997 170.818C180.101 170.173 196.677 152.251 196.021 130.789C195.364 109.327 177.724 92.4522 156.62 93.0976C135.517 93.743 118.941 111.665 119.597 133.127C120.253 154.589 137.894 171.464 158.997 170.818Z" fill="#86B1FF"/>
<path d="M158.571 158.67C173.964 158.199 186.055 145.126 185.576 129.471C185.097 113.817 172.23 101.507 156.837 101.978C141.443 102.449 129.352 115.521 129.831 131.176C130.31 146.831 143.177 159.14 158.571 158.67Z" fill="url(#paint6_linear_2565_8862)"/>
</g>
<defs>
<filter id="filter0_dd_2565_8862" x="0.464282" y="-9.53674e-07" width="312.071" height="318.793" filterUnits="userSpaceOnUse" color-interpolation-filters="sRGB">
<feFlood flood-opacity="0" result="BackgroundImageFix"/>
<feColorMatrix in="SourceAlpha" type="matrix" values="0 0 0 0 0 0 0 0 0 0 0 0 0 0 0 0 0 0 127 0" result="hardAlpha"/>
<feMorphology radius="4.58929" operator="erode" in="SourceAlpha" result="effect1_dropShadow_2565_8862"/>
<feOffset dy="9.17857"/>
<feGaussianBlur stdDeviation="6.88393"/>
<feComposite in2="hardAlpha" operator="out"/>
<feColorMatrix type="matrix" values="0 0 0 0 0.0509804 0 0 0 0 0.0509804 0 0 0 0 0.0705882 0 0 0 0.03 0"/>
<feBlend mode="normal" in2="BackgroundImageFix" result="effect1_dropShadow_2565_8862"/>
<feColorMatrix in="SourceAlpha" type="matrix" values="0 0 0 0 0 0 0 0 0 0 0 0 0 0 0 0 0 0 127 0" result="hardAlpha"/>
<feMorphology radius="9.17857" operator="erode" in="SourceAlpha" result="effect2_dropShadow_2565_8862"/>
<feOffset dy="27.5357"/>
<feGaussianBlur stdDeviation="18.3571"/>
<feComposite in2="hardAlpha" operator="out"/>
<feColorMatrix type="matrix" values="0 0 0 0 0.0509804 0 0 0 0 0.0509804 0 0 0 0 0.0705882 0 0 0 0.08 0"/>
<feBlend mode="normal" in2="effect1_dropShadow_2565_8862" result="effect2_dropShadow_2565_8862"/>
<feBlend mode="normal" in="SourceGraphic" in2="effect2_dropShadow_2565_8862" result="shape"/>
</filter>
<linearGradient id="paint0_linear_2565_8862" x1="156.522" y1="263.722" x2="156.522" y2="-0.0435332" gradientUnits="userSpaceOnUse">
<stop stop-color="#DBDCDF"/>
<stop offset="0.65" stop-color="#E7E8E9"/>
<stop offset="0.93" stop-color="#EFEFF0"/>
</linearGradient>
<linearGradient id="paint1_linear_2565_8862" x1="209.131" y1="162.464" x2="167.555" y2="223.581" gradientUnits="userSpaceOnUse">
<stop stop-color="#0434A1"/>
<stop offset="1" stop-color="#009CFF"/>
</linearGradient>
<linearGradient id="paint2_linear_2565_8862" x1="102.689" y1="134.319" x2="97.8376" y2="60.5577" gradientUnits="userSpaceOnUse">
<stop stop-color="#0434A1"/>
<stop offset="1" stop-color="#009CFF"/>
</linearGradient>
<linearGradient id="paint3_linear_2565_8862" x1="139.043" y1="80.092" x2="209.364" y2="57.3109" gradientUnits="userSpaceOnUse">
<stop stop-color="#0434A1"/>
<stop offset="1" stop-color="#009CFF"/>
</linearGradient>
<linearGradient id="paint4_linear_2565_8862" x1="200.559" y1="98.1814" x2="245.971" y2="156.507" gradientUnits="userSpaceOnUse">
<stop stop-color="#0434A1"/>
<stop offset="1" stop-color="#009CFF"/>
</linearGradient>
<linearGradient id="paint5_linear_2565_8862" x1="145.454" y1="184.402" x2="72.9504" y2="170.003" gradientUnits="userSpaceOnUse">
<stop stop-color="#0434A1"/>
<stop offset="1" stop-color="#009CFF"/>
</linearGradient>
<linearGradient id="paint6_linear_2565_8862" x1="158.576" y1="158.67" x2="156.867" y2="102.789" gradientUnits="userSpaceOnUse">
<stop stop-color="#003CFF"/>
<stop offset="1" stop-color="#0097FF"/>
</linearGradient>
</defs>
</svg>
