<svg width="63" height="63" viewBox="0 0 63 63" fill="none" xmlns="http://www.w3.org/2000/svg">
<g filter="url(#filter0_dd_2479_17818)">
<rect x="0.233004" y="-0.233004" width="55.534" height="55.534" rx="27.767" transform="matrix(1 0 0 -1 3.38989 58.034)" fill="url(#paint0_linear_2479_17818)" stroke="#CACACA" stroke-width="0.466007"/>
</g>
<mask id="mask0_2479_17818" style="mask-type:alpha" maskUnits="userSpaceOnUse" x="3" y="2" width="57" height="57">
<rect x="0.233004" y="-0.233004" width="55.534" height="55.534" rx="27.767" transform="matrix(1 0 0 -1 3.38989 58.034)" fill="url(#paint1_linear_2479_17818)" stroke="#CACACA" stroke-width="0.466007"/>
</mask>
<g mask="url(#mask0_2479_17818)">
<path d="M2.38989 30.4307H59.3995V35.5291H2.38989V30.4307Z" fill="#0A5AEB"/>
<path d="M52.2154 58.7036H9.57403L5.40259 35.5288H56.3868L52.2154 58.7036Z" fill="#0A5AEB"/>
<path d="M55.8863 38.3098L56.3868 35.5288H5.40259L5.90316 38.3098H55.8863Z" fill="#073C9D"/>
<path d="M52.2733 57.9502L29.0986 34.7755C28.1068 33.7836 28.1068 32.1752 29.0986 31.1834C30.0905 30.1915 31.6988 30.1915 32.6907 31.1834L55.8654 54.3581C56.8572 55.35 56.8572 56.9583 55.8654 57.9502C54.8735 58.9421 53.2652 58.9421 52.2733 57.9502Z" fill="#FFE352"/>
<path d="M30.8948 34.1378C31.5348 34.1378 32.0535 33.619 32.0535 32.9791C32.0535 32.3391 31.5348 31.8203 30.8948 31.8203C30.2549 31.8203 29.7361 32.3391 29.7361 32.9791C29.7361 33.619 30.2549 34.1378 30.8948 34.1378Z" fill="#FFB236"/>
<path d="M16.6426 10.5H39.8172V30.4303H16.6426V10.5Z" fill="#ADC8F8"/>
<path d="M9.57422 16.1782H23.7108V30.3148H9.57422V16.1782Z" fill="#5C91F2"/>
<path d="M18.9599 20.8132L16.6424 19.8862L14.325 20.8132V16.1782H18.9599V20.8132Z" fill="url(#paint2_linear_2479_17818)"/>
<path d="M31.2425 16.5254L28.2297 15.3777L25.217 16.5254V10.5H31.2425V16.5254Z" fill="url(#paint3_linear_2479_17818)"/>
<path d="M34.8347 20.2334H52.2157V30.4303H34.8347V20.2334Z" fill="#CEDEFB"/>
<path d="M45.8425 24.8684L43.525 23.9414L41.2075 24.8684V20.2334H45.8425V24.8684Z" fill="url(#paint4_linear_2479_17818)"/>
</g>
<defs>
<filter id="filter0_dd_2479_17818" x="0.59385" y="0.635971" width="61.5921" height="61.5921" filterUnits="userSpaceOnUse" color-interpolation-filters="sRGB">
<feFlood flood-opacity="0" result="BackgroundImageFix"/>
<feColorMatrix in="SourceAlpha" type="matrix" values="0 0 0 0 0 0 0 0 0 0 0 0 0 0 0 0 0 0 127 0" result="hardAlpha"/>
<feOffset dy="0.932014"/>
<feGaussianBlur stdDeviation="0.932014"/>
<feComposite in2="hardAlpha" operator="out"/>
<feColorMatrix type="matrix" values="0 0 0 0 0.0509804 0 0 0 0 0.0509804 0 0 0 0 0.0705882 0 0 0 0.04 0"/>
<feBlend mode="normal" in2="BackgroundImageFix" result="effect1_dropShadow_2479_17818"/>
<feColorMatrix in="SourceAlpha" type="matrix" values="0 0 0 0 0 0 0 0 0 0 0 0 0 0 0 0 0 0 127 0" result="hardAlpha"/>
<feOffset dy="0.932014"/>
<feGaussianBlur stdDeviation="1.39802"/>
<feComposite in2="hardAlpha" operator="out"/>
<feColorMatrix type="matrix" values="0 0 0 0 0.0509804 0 0 0 0 0.0509804 0 0 0 0 0.0705882 0 0 0 0.05 0"/>
<feBlend mode="normal" in2="effect1_dropShadow_2479_17818" result="effect2_dropShadow_2479_17818"/>
<feBlend mode="normal" in="SourceGraphic" in2="effect2_dropShadow_2479_17818" result="shape"/>
</filter>
<linearGradient id="paint0_linear_2479_17818" x1="28.8615" y1="-0.861539" x2="29.2923" y2="37.9077" gradientUnits="userSpaceOnUse">
<stop stop-color="white"/>
<stop offset="0.59" stop-color="#F9F9F9"/>
<stop offset="1" stop-color="#F2F2F2"/>
</linearGradient>
<linearGradient id="paint1_linear_2479_17818" x1="28.8615" y1="-0.861539" x2="29.2923" y2="37.9077" gradientUnits="userSpaceOnUse">
<stop stop-color="white"/>
<stop offset="0.59" stop-color="#F9F9F9"/>
<stop offset="1" stop-color="#F2F2F2"/>
</linearGradient>
<linearGradient id="paint2_linear_2479_17818" x1="16.6429" y1="20.8145" x2="16.6429" y2="16.2458" gradientUnits="userSpaceOnUse">
<stop stop-color="#004DFF"/>
<stop offset="1" stop-color="#009CFF"/>
</linearGradient>
<linearGradient id="paint3_linear_2479_17818" x1="28.2304" y1="16.5254" x2="28.2304" y2="10.5862" gradientUnits="userSpaceOnUse">
<stop stop-color="#003CFF"/>
<stop offset="1" stop-color="#0097FF"/>
</linearGradient>
<linearGradient id="paint4_linear_2479_17818" x1="43.5255" y1="24.8696" x2="43.5255" y2="20.301" gradientUnits="userSpaceOnUse">
<stop stop-color="#004DFF"/>
<stop offset="1" stop-color="#009CFF"/>
</linearGradient>
</defs>
</svg>
