<svg width="63" height="63" viewBox="0 0 63 63" fill="none" xmlns="http://www.w3.org/2000/svg">
<g filter="url(#filter0_dd_2479_17752)">
<rect x="0.233004" y="-0.233004" width="55.534" height="55.534" rx="27.767" transform="matrix(1 0 0 -1 3.5 58.034)" fill="url(#paint0_linear_2479_17752)" stroke="#CACACA" stroke-width="0.466007"/>
</g>
<g clip-path="url(#clip0_2479_17752)">
<path d="M45.4328 7.54022C45.2328 6.79437 44.4596 6.34805 43.7138 6.54761L11.7883 15.1023C11.0424 15.3018 10.5961 16.0754 10.7957 16.8209L21.3435 56.1862C24.5312 57.67 28.0843 58.4999 31.8318 58.4999C42.2832 58.4999 51.2282 52.0555 54.9138 42.9244L45.4328 7.54022Z" fill="#CCEBFF"/>
<path d="M20.2465 12.8354L11.7883 15.102C11.0424 15.3015 10.5961 16.0751 10.7957 16.8206L20.2465 52.0913V12.8354Z" fill="#B8DFF4"/>
<path d="M52.168 11.3744C52.168 10.6024 51.5364 9.97119 50.7648 9.97119H17.7126C16.9409 9.97119 16.3093 10.6024 16.3093 11.3744V53.0646C20.565 56.4654 25.9601 58.5002 31.8313 58.5002C40.2336 58.5002 47.6628 54.3353 52.168 47.9575V11.3744Z" fill="#E6FCFF"/>
<path d="M25.5821 11.3744C25.5821 10.6024 26.2136 9.97119 26.9857 9.97119H17.7126C16.9409 9.97119 16.3093 10.6024 16.3093 11.3744V53.0646C19.0003 55.2153 22.1476 56.8184 25.5821 57.7075V11.3744Z" fill="#CCEBFF"/>
<path d="M47.3557 18.9741C46.8995 18.9741 46.5293 19.3439 46.5293 19.8001V24.4752H39.437V19.8001C39.437 19.3439 39.0672 18.9741 38.611 18.9741C38.1548 18.9741 37.785 19.3439 37.785 19.8001V24.4752H30.6923V19.8001C30.6923 19.3439 30.3226 18.9741 29.8663 18.9741C29.4101 18.9741 29.0403 19.3439 29.0403 19.8001V24.4752H21.9476V19.8001C21.9476 19.3439 21.5779 18.9741 21.1216 18.9741C20.6654 18.9741 20.2957 19.3439 20.2957 19.8001V55.5148C20.2957 55.5699 20.3012 55.6239 20.3115 55.6766C20.7602 55.9111 21.2161 56.1333 21.6802 56.3408H41.982C43.0532 55.8615 44.0839 55.3085 45.0686 54.6884H39.4366V51.2372H46.5293V53.695C47.0986 53.2772 47.6501 52.8369 48.1813 52.3735V19.8001C48.1817 19.3443 47.8119 18.9741 47.3557 18.9741ZM29.0403 54.6884H21.948V51.2372H29.0403V54.6884ZM29.0403 49.5853H21.948V46.2155H29.0403V49.5853ZM29.0403 44.5631H21.948V41.1933H29.0403V44.5631ZM29.0403 39.5413H21.948V36.1715H29.0403V39.5413ZM29.0403 34.5191H21.948V31.1493H29.0403V34.5191ZM29.0403 29.4969H21.948V26.1271H29.0403V29.4969ZM37.785 54.6884H30.6927V51.2372H37.785V54.6884ZM37.785 49.5853H30.6927V46.2155H37.785V49.5853ZM37.785 44.5631H30.6927V41.1933H37.785V44.5631ZM37.785 39.5413H30.6927V36.1715H37.785V39.5413ZM37.785 34.5191H30.6927V31.1493H37.785V34.5191ZM37.785 29.4969H30.6927V26.1271H37.785V29.4969ZM46.5293 49.5853H39.437V46.2155H46.5293V49.5853ZM46.5293 44.5631H39.437V41.1933H46.5293V44.5631ZM46.5293 39.5413H39.437V36.1715H46.5293V39.5413ZM46.5293 34.5191H39.437V31.1493H46.5293V34.5191ZM46.5293 29.4969H39.437V26.1271H46.5293V29.4969Z" fill="#CCEBFF"/>
<path d="M25.5821 56.3408V54.6884H21.948V51.2372H25.5821V49.5853H21.948V46.2155H25.5821V44.5631H21.948V41.1933H25.5821V39.5413H21.948V36.1715H25.5821V34.5191H21.948V31.1493H25.5821V29.4969H21.948V26.1271H25.5821V24.4752H21.948V19.8001C21.948 19.3439 21.5783 18.9741 21.1216 18.9741C20.6654 18.9741 20.2957 19.3439 20.2957 19.8001V55.5144C20.2957 55.5691 20.3012 55.6223 20.3111 55.6739C20.3627 55.7008 20.4143 55.7274 20.4659 55.754C20.5884 55.8171 20.7114 55.8794 20.8352 55.9405C20.9328 55.9885 21.0304 56.0365 21.1284 56.0829C21.2379 56.1356 21.3486 56.1864 21.4593 56.2376C21.5346 56.2721 21.61 56.3066 21.6862 56.3408H25.5821Z" fill="#B8DFF4"/>
<path d="M23.9922 40.6177C21.9736 37.1214 17.5025 35.9232 14.0062 37.9422C10.5098 39.9607 9.31167 44.4319 11.3306 47.9282C13.3492 51.4246 17.8203 52.6227 21.3167 50.6038C24.813 48.5852 26.0108 44.1141 23.9922 40.6177Z" fill="#5C91F2"/>
<path d="M21.5892 48.7043C21.4111 48.3957 21.3865 48.0418 21.4896 47.728L16.5972 39.2543C16.2743 39.1864 15.9799 38.9881 15.8017 38.6798C15.4975 38.1526 15.6383 37.492 16.1068 37.1294C15.3868 37.2861 14.6786 37.5547 14.0062 37.9431C10.5098 39.9616 9.31167 44.4328 11.3306 47.9291C13.3492 51.4259 17.8203 52.624 21.3167 50.6051C21.9717 50.227 22.5461 49.7628 23.0337 49.2352C22.4973 49.4268 21.8844 49.2153 21.5892 48.7043Z" fill="#2673FF"/>
<path d="M22.2446 41.6268C20.783 39.0957 17.5465 38.2284 15.015 39.69C12.4839 41.1515 11.6166 44.388 13.0782 46.9192C14.5397 49.4507 17.7762 50.3179 20.3074 48.8564C22.8389 47.3949 23.7061 44.1583 22.2446 41.6268Z" fill="#84ACF5"/>
<path d="M15.5265 45.5068C14.3097 43.3993 14.708 40.8044 16.3358 39.1504C15.8839 39.2674 15.4396 39.4456 15.0155 39.6903C12.4844 41.1519 11.6171 44.3888 13.0787 46.9199C14.5402 49.451 17.7767 50.3187 20.3078 48.8571C20.7319 48.612 21.1084 48.3168 21.4357 47.9839C19.1895 48.5663 16.7428 47.6138 15.5265 45.5068Z" fill="#0A5AEB"/>
<path d="M32.6721 36.1558C30.6536 32.6594 26.1825 31.4613 22.6861 33.4803C19.1897 35.4988 17.9916 39.9696 20.0106 43.4663C22.0291 46.9627 26.5002 48.1604 29.9966 46.1419C33.493 44.1229 34.6911 39.6522 32.6721 36.1558Z" fill="#5C91F2"/>
<path d="M30.2695 44.2419C30.0914 43.9337 30.0668 43.5794 30.1699 43.2656L25.2775 34.7919C24.9541 34.7244 24.6598 34.5261 24.4816 34.2174C24.1774 33.6902 24.3186 33.0296 24.7867 32.667C24.0671 32.8241 23.3589 33.0927 22.6865 33.4807C19.1901 35.4996 17.992 39.9704 20.0105 43.4671C22.0295 46.9635 26.5006 48.1616 29.997 46.1431C30.652 45.765 31.2264 45.3004 31.714 44.7728C31.1776 44.9644 30.5643 44.7529 30.2695 44.2419Z" fill="#2673FF"/>
<path d="M30.9245 37.1649C29.4629 34.6338 26.2264 33.7665 23.6953 35.2281C21.1642 36.6892 20.2969 39.9261 21.7581 42.4573C23.2196 44.9884 26.4561 45.8556 28.9877 44.3941C31.5188 42.9329 32.386 39.696 30.9245 37.1649Z" fill="#84ACF5"/>
<path d="M24.2067 41.0449C22.9899 38.9374 23.3883 36.3424 25.016 34.6885C24.5638 34.8059 24.1198 34.9836 23.6957 35.2288C21.1646 36.69 20.2969 39.9269 21.7585 42.458C23.22 44.9891 26.4569 45.8568 28.9881 44.3952C29.4122 44.1504 29.7883 43.8549 30.116 43.522C27.8697 44.1044 25.4231 43.1519 24.2067 41.0449Z" fill="#0A5AEB"/>
<path d="M47.4495 15.6489H28.8203V20.3585H48.1854V16.3845C48.1854 15.9782 47.8557 15.6489 47.4495 15.6489Z" fill="#8CECF8"/>
<path d="M21.0283 15.6489C20.622 15.6489 20.2927 15.9782 20.2927 16.3845V20.3585H29.0406V15.6489H21.0283Z" fill="#51E0F4"/>
<path d="M25.5825 15.6489H21.0284C20.6222 15.6489 20.2925 15.9782 20.2925 16.3845V20.3585H25.5825V15.6489Z" fill="#15D4F0"/>
<path d="M51.4573 21.3887C51.4561 21.4966 51.443 21.6061 51.4136 21.7152L50.9721 23.3636C51.053 23.5671 51.0716 23.7976 51.0094 24.0249L48.1303 34.4827C48.0037 34.9425 48.2739 35.4178 48.7337 35.5443C48.7357 35.5447 48.7377 35.5455 48.7393 35.5459C49.1975 35.6685 49.6692 35.3987 49.7954 34.9413L52.674 24.4824C53.0081 23.2656 52.4788 22.0187 51.4573 21.3887Z" fill="#7C9DFC"/>
<path d="M51.1895 27.5882C50.7118 27.5882 50.3175 27.2343 50.252 26.7749L48.1303 34.4825C48.0037 34.9423 48.2739 35.4176 48.7337 35.5442C48.7357 35.5446 48.7377 35.5454 48.7393 35.5458C49.1975 35.6684 49.6692 35.3986 49.7954 34.9412L51.9111 27.2538C51.7373 27.4581 51.4787 27.5882 51.1895 27.5882Z" fill="#5F83FA"/>
<path d="M42.8076 39.3937L46.0814 27.1753L49.2068 28.0128L45.933 40.2312L42.8076 39.3937Z" fill="#7C9DFC"/>
<path d="M45.1281 36.9881C44.3969 36.7921 43.9062 36.1479 43.8709 35.4302L42.8088 39.3931L45.9343 40.2306L46.9963 36.2677C46.6067 36.8715 45.8597 37.1841 45.1281 36.9881Z" fill="#5F83FA"/>
<path d="M48.5354 20.3675L50.4873 20.8908C50.5349 20.9035 50.5809 20.919 50.6258 20.9364L51.4752 17.8519C51.6457 17.231 51.2812 16.5895 50.6607 16.4185C50.6579 16.4181 50.6551 16.4173 50.6527 16.4165C50.0346 16.2507 49.3975 16.6149 49.2277 17.233L48.3735 20.3358C48.4275 20.3433 48.4814 20.3532 48.5354 20.3675Z" fill="#7C9DFC"/>
<path d="M50.3625 18.7439C49.7138 18.7439 49.1814 18.248 49.1223 17.6152L48.3733 20.3356C48.4272 20.3431 48.4816 20.3527 48.5356 20.3673L50.4875 20.8906C50.5351 20.9033 50.5811 20.9188 50.6259 20.9362L51.3718 18.2262C51.1456 18.5392 50.7783 18.7439 50.3625 18.7439Z" fill="#5F83FA"/>
<path d="M40.8431 52.9801C40.3825 52.8567 40.1091 52.3834 40.2325 51.9228L40.803 49.794C40.9264 49.3334 41.3997 49.06 41.8603 49.1834C42.3209 49.3072 42.5942 49.7805 42.4708 50.2411L41.9003 52.3699C41.777 52.8302 41.3037 53.1035 40.8431 52.9801Z" fill="#4E2AA5"/>
<path d="M42.3088 50.846C43.0657 49.7732 43.8314 48.078 43.9806 47.5214L45.971 40.0938L42.8456 39.2563L40.8552 46.6839C40.706 47.2405 40.5219 49.0916 40.6409 50.3989L42.3088 50.846Z" fill="#5F83FA"/>
<path d="M48.4917 28.3391L46.5398 27.8158C45.8352 27.6269 45.4171 26.9029 45.6059 26.1983L47.1305 20.5081C47.3194 19.8035 48.0434 19.3853 48.748 19.5742L50.6999 20.097C51.4045 20.2859 51.8226 21.0103 51.6338 21.7149L50.1092 27.4048C49.9203 28.1094 49.1963 28.5275 48.4917 28.3391Z" fill="#5F83FA"/>
<path d="M47.7653 27.1449L49.474 20.7679C49.6121 20.253 50.1413 19.9475 50.6562 20.0855L50.6999 20.097L48.748 19.5742C48.0434 19.3853 47.319 19.8035 47.1301 20.5081L45.6059 26.1983C45.4171 26.9029 45.8352 27.6269 46.5398 27.8158L48.4481 28.3272C47.9331 28.1891 47.6276 27.6599 47.7653 27.1449Z" fill="#4070EA"/>
</g>
<defs>
<filter id="filter0_dd_2479_17752" x="0.703957" y="0.635971" width="61.5921" height="61.5921" filterUnits="userSpaceOnUse" color-interpolation-filters="sRGB">
<feFlood flood-opacity="0" result="BackgroundImageFix"/>
<feColorMatrix in="SourceAlpha" type="matrix" values="0 0 0 0 0 0 0 0 0 0 0 0 0 0 0 0 0 0 127 0" result="hardAlpha"/>
<feOffset dy="0.932014"/>
<feGaussianBlur stdDeviation="0.932014"/>
<feComposite in2="hardAlpha" operator="out"/>
<feColorMatrix type="matrix" values="0 0 0 0 0.0509804 0 0 0 0 0.0509804 0 0 0 0 0.0705882 0 0 0 0.04 0"/>
<feBlend mode="normal" in2="BackgroundImageFix" result="effect1_dropShadow_2479_17752"/>
<feColorMatrix in="SourceAlpha" type="matrix" values="0 0 0 0 0 0 0 0 0 0 0 0 0 0 0 0 0 0 127 0" result="hardAlpha"/>
<feOffset dy="0.932014"/>
<feGaussianBlur stdDeviation="1.39802"/>
<feComposite in2="hardAlpha" operator="out"/>
<feColorMatrix type="matrix" values="0 0 0 0 0.0509804 0 0 0 0 0.0509804 0 0 0 0 0.0705882 0 0 0 0.05 0"/>
<feBlend mode="normal" in2="effect1_dropShadow_2479_17752" result="effect2_dropShadow_2479_17752"/>
<feBlend mode="normal" in="SourceGraphic" in2="effect2_dropShadow_2479_17752" result="shape"/>
</filter>
<linearGradient id="paint0_linear_2479_17752" x1="28.8615" y1="-0.861539" x2="29.2923" y2="37.9077" gradientUnits="userSpaceOnUse">
<stop stop-color="white"/>
<stop offset="0.59" stop-color="#F9F9F9"/>
<stop offset="1" stop-color="#F2F2F2"/>
</linearGradient>
<clipPath id="clip0_2479_17752">
<rect width="52" height="52" fill="white" transform="translate(5.83154 6.5)"/>
</clipPath>
</defs>
</svg>
