<svg width="63" height="63" viewBox="0 0 63 63" fill="none" xmlns="http://www.w3.org/2000/svg">
<g filter="url(#filter0_dd_2479_17716)">
<rect x="0.233004" y="-0.233004" width="55.534" height="55.534" rx="27.767" transform="matrix(1 0 0 -1 3.7771 58.285)" fill="url(#paint0_linear_2479_17716)" stroke="#CACACA" stroke-width="0.466007"/>
<mask id="mask0_2479_17716" style="mask-type:alpha" maskUnits="userSpaceOnUse" x="3" y="2" width="57" height="57">
<rect x="0.233004" y="-0.233004" width="55.534" height="55.534" rx="27.767" transform="matrix(1 0 0 -1 3.44336 57.783)" fill="url(#paint1_linear_2479_17716)" stroke="#CACACA" stroke-width="0.466007"/>
</mask>
<g mask="url(#mask0_2479_17716)">
<path d="M40.5371 8.82715V38.9053H20.7715V8.82715H25.9277V16.5615H35.3809V8.82715H40.5371Z" fill="#DADCDE"/>
<path d="M46.0428 10.5894L51.7093 12.7697L35.0495 56.0667L29.383 53.8864L46.0428 10.5894Z" fill="#FFD33A"/>
<path d="M36.2402 26.0146V32.8896H27.6465V26.0146C27.6465 25.5588 27.8276 25.1216 28.1499 24.7993C28.4722 24.477 28.9094 24.2959 29.3652 24.2959H30.2246V19.999H33.6621V24.2959H34.5215C34.9773 24.2959 35.4145 24.477 35.7368 24.7993C36.0592 25.1216 36.2402 25.5588 36.2402 26.0146Z" fill="#B37A60"/>
<path d="M18.1934 15.7021H21.6309V20.8585H18.1934V15.7021Z" fill="#2D85CC"/>
<path d="M15.6152 22.5771H24.209V26.0146H15.6152V22.5771Z" fill="#2D85CC"/>
<path d="M24.209 22.5771H15.6152C15.6152 21.6655 15.9774 20.7911 16.6221 20.1465C17.2667 19.5018 18.1411 19.1396 19.0527 19.1396H20.7715C21.6832 19.1396 22.5575 19.5018 23.2022 20.1465C23.8468 20.7911 24.209 21.6655 24.209 22.5771Z" fill="#A3D4F7"/>
<path d="M15.6152 26.0146H24.209V29.4521H15.6152V26.0146Z" fill="#A3D4F7"/>
<path d="M47.4121 32.0303V34.6084L45.9211 55.4783C45.8593 56.3455 45.4712 57.157 44.835 57.7494C44.1987 58.3418 43.3615 58.6711 42.4922 58.6709H19.6758C18.8064 58.6711 17.9693 58.3418 17.333 57.7494C16.6968 57.157 16.3086 56.3455 16.2469 55.4783L14.7559 34.6084V32.0303H47.4121Z" fill="#0A5AEB"/>
<path d="M13.8965 29.4521H48.2715C48.7273 29.4521 49.1645 29.6332 49.4868 29.9556C49.8092 30.2779 49.9902 30.7151 49.9902 31.1709V34.6084H12.1777V31.1709C12.1777 30.7151 12.3588 30.2779 12.6811 29.9556C13.0035 29.6332 13.4406 29.4521 13.8965 29.4521Z" fill="#84ACF5"/>
<path d="M27.6465 51.7961H24.838L26.9236 48.1837L27.0158 48.5274C27.045 48.6364 27.0954 48.7386 27.1641 48.8282C27.2328 48.9177 27.3184 48.9928 27.4162 49.0493C27.5139 49.1057 27.6218 49.1423 27.7337 49.157C27.8456 49.1718 27.9593 49.1643 28.0683 49.1351C28.1773 49.1059 28.2795 49.0555 28.369 48.9868C28.4586 48.9181 28.5337 48.8325 28.5901 48.7347C28.6465 48.637 28.6832 48.5291 28.6979 48.4172C28.7126 48.3053 28.7052 48.1916 28.676 48.0826L28.0468 45.7347C28.0176 45.6256 27.9672 45.5234 27.8985 45.4339C27.8298 45.3443 27.7441 45.2692 27.6463 45.2128C27.5486 45.1563 27.4406 45.1197 27.3287 45.105C27.2168 45.0903 27.1031 45.0977 26.9941 45.127L24.6463 45.7562C24.4261 45.8151 24.2384 45.9592 24.1244 46.1566C24.0105 46.354 23.9796 46.5885 24.0386 46.8087C24.0976 47.0288 24.2416 47.2165 24.439 47.3305C24.6364 47.4445 24.8709 47.4754 25.0911 47.4164L25.4348 47.3242L22.6053 52.2258C22.5296 52.3564 22.4896 52.5046 22.4895 52.6556C22.4894 52.8066 22.529 52.9549 22.6045 53.0856C22.68 53.2164 22.7887 53.3249 22.9195 53.4003C23.0503 53.4756 23.1987 53.5151 23.3497 53.5148H27.6465C27.8745 53.5148 28.0931 53.4243 28.2542 53.2631C28.4154 53.1019 28.5059 52.8834 28.5059 52.6554C28.5059 52.4275 28.4154 52.2089 28.2542 52.0478C28.0931 51.8866 27.8745 51.7961 27.6465 51.7961Z" fill="#84ACF5"/>
<path d="M39.5626 52.2256L37.4142 48.5044C37.3582 48.4059 37.2832 48.3195 37.1936 48.25C37.1041 48.1806 37.0016 48.1295 36.8923 48.0998C36.7829 48.0702 36.6687 48.0624 36.5563 48.077C36.4439 48.0916 36.3356 48.1283 36.2374 48.185C36.1393 48.2416 36.0533 48.3172 35.9844 48.4072C35.9156 48.4972 35.8652 48.6 35.8363 48.7095C35.8073 48.8191 35.8003 48.9333 35.8156 49.0456C35.831 49.1579 35.8684 49.2661 35.9257 49.3638L37.33 51.796H33.1587L33.4105 51.5443C33.4903 51.4645 33.5536 51.3697 33.5967 51.2655C33.6399 51.1612 33.6622 51.0494 33.6622 50.9366C33.6622 50.8237 33.6399 50.712 33.5967 50.6077C33.5536 50.5034 33.4903 50.4087 33.4105 50.3289C33.3307 50.2491 33.2359 50.1858 33.1316 50.1426C33.0274 50.0994 32.9156 50.0772 32.8028 50.0772C32.6899 50.0772 32.5782 50.0994 32.4739 50.1426C32.3696 50.1858 32.2749 50.2491 32.1951 50.3289L30.4763 52.0476C30.3965 52.1274 30.3332 52.2222 30.29 52.3265C30.2468 52.4307 30.2246 52.5425 30.2246 52.6553C30.2246 52.7682 30.2468 52.8799 30.29 52.9842C30.3332 53.0885 30.3965 53.1832 30.4763 53.263L32.1951 54.9818C32.3563 55.1429 32.5748 55.2335 32.8028 55.2335C33.0307 55.2335 33.2493 55.1429 33.4105 54.9818C33.5716 54.8206 33.6622 54.602 33.6622 54.3741C33.6622 54.1462 33.5716 53.9276 33.4105 53.7664L33.1587 53.5147H38.8192C38.97 53.5146 39.1181 53.4747 39.2486 53.3992C39.3791 53.3238 39.4875 53.2153 39.5628 53.0846C39.6382 52.954 39.6778 52.8059 39.6777 52.6551C39.6777 52.5043 39.638 52.3562 39.5626 52.2256Z" fill="#84ACF5"/>
<path d="M35.8027 42.4254C35.6937 42.3961 35.58 42.3886 35.468 42.4034C35.3561 42.4181 35.2482 42.4547 35.1504 42.5111C35.0527 42.5676 34.967 42.6427 34.8983 42.7322C34.8296 42.8218 34.7792 42.924 34.75 43.033L34.6578 43.3768L31.8282 38.4756C31.7529 38.3448 31.6445 38.2362 31.5139 38.1607C31.3833 38.0852 31.2351 38.0454 31.0842 38.0454C30.9334 38.0454 30.7852 38.0852 30.6546 38.1607C30.524 38.2362 30.4156 38.3448 30.3403 38.4756L28.1919 42.1968C28.1345 42.2945 28.0971 42.4027 28.0818 42.515C28.0664 42.6273 28.0734 42.7415 28.1024 42.851C28.1314 42.9606 28.1817 43.0634 28.2506 43.1534C28.3194 43.2434 28.4054 43.319 28.5035 43.3756C28.6017 43.4323 28.7101 43.469 28.8225 43.4836C28.9348 43.4982 29.049 43.4904 29.1584 43.4607C29.2678 43.431 29.3702 43.38 29.4598 43.3106C29.5493 43.2411 29.6243 43.1547 29.6803 43.0561L31.0841 40.624L33.1697 44.2365L32.8259 44.1443C32.7169 44.1151 32.6032 44.1077 32.4913 44.1224C32.3794 44.1371 32.2716 44.1738 32.1738 44.2302C32.0761 44.2866 31.9904 44.3617 31.9217 44.4513C31.853 44.5408 31.8026 44.643 31.7734 44.752C31.7442 44.861 31.7368 44.9747 31.7515 45.0866C31.7662 45.1985 31.8028 45.3064 31.8593 45.4041C31.9157 45.5019 31.9908 45.5875 32.0804 45.6562C32.1699 45.7249 32.2721 45.7753 32.3811 45.8045L34.7289 46.4337C34.8379 46.463 34.9517 46.4706 35.0636 46.4559C35.1756 46.4412 35.2835 46.4046 35.3813 46.3482C35.4791 46.2917 35.5648 46.2165 35.6335 46.127C35.7022 46.0374 35.7525 45.9351 35.7816 45.826L36.4108 43.4781C36.4401 43.369 36.4475 43.2553 36.4328 43.1434C36.418 43.0314 36.3814 42.9235 36.3249 42.8257C36.2684 42.728 36.1932 42.6423 36.1036 42.5736C36.014 42.5049 35.9118 42.4545 35.8027 42.4254Z" fill="#84ACF5"/>
</g>
</g>
<defs>
<filter id="filter0_dd_2479_17716" x="0.981057" y="0.886948" width="61.5921" height="61.5921" filterUnits="userSpaceOnUse" color-interpolation-filters="sRGB">
<feFlood flood-opacity="0" result="BackgroundImageFix"/>
<feColorMatrix in="SourceAlpha" type="matrix" values="0 0 0 0 0 0 0 0 0 0 0 0 0 0 0 0 0 0 127 0" result="hardAlpha"/>
<feOffset dy="0.932014"/>
<feGaussianBlur stdDeviation="0.932014"/>
<feComposite in2="hardAlpha" operator="out"/>
<feColorMatrix type="matrix" values="0 0 0 0 0.0509804 0 0 0 0 0.0509804 0 0 0 0 0.0705882 0 0 0 0.04 0"/>
<feBlend mode="normal" in2="BackgroundImageFix" result="effect1_dropShadow_2479_17716"/>
<feColorMatrix in="SourceAlpha" type="matrix" values="0 0 0 0 0 0 0 0 0 0 0 0 0 0 0 0 0 0 127 0" result="hardAlpha"/>
<feOffset dy="0.932014"/>
<feGaussianBlur stdDeviation="1.39802"/>
<feComposite in2="hardAlpha" operator="out"/>
<feColorMatrix type="matrix" values="0 0 0 0 0.0509804 0 0 0 0 0.0509804 0 0 0 0 0.0705882 0 0 0 0.05 0"/>
<feBlend mode="normal" in2="effect1_dropShadow_2479_17716" result="effect2_dropShadow_2479_17716"/>
<feBlend mode="normal" in="SourceGraphic" in2="effect2_dropShadow_2479_17716" result="shape"/>
</filter>
<linearGradient id="paint0_linear_2479_17716" x1="28.8615" y1="-0.861539" x2="29.2923" y2="37.9077" gradientUnits="userSpaceOnUse">
<stop stop-color="white"/>
<stop offset="0.59" stop-color="#F9F9F9"/>
<stop offset="1" stop-color="#F2F2F2"/>
</linearGradient>
<linearGradient id="paint1_linear_2479_17716" x1="28.8615" y1="-0.861539" x2="29.2923" y2="37.9077" gradientUnits="userSpaceOnUse">
<stop stop-color="white"/>
<stop offset="0.59" stop-color="#F9F9F9"/>
<stop offset="1" stop-color="#F2F2F2"/>
</linearGradient>
</defs>
</svg>
