<svg width="62" height="63" viewBox="0 0 62 63" fill="none" xmlns="http://www.w3.org/2000/svg">
<g filter="url(#filter0_dd_2479_17738)">
<rect x="0.233004" y="-0.233004" width="55.534" height="55.534" rx="27.767" transform="matrix(1 0 0 -1 3.05518 58.034)" fill="url(#paint0_linear_2479_17738)" stroke="#CACACA" stroke-width="0.466007"/>
<path d="M29.5773 27.4466C34.8093 27.4466 39.0506 23.2053 39.0506 17.9733C39.0506 12.7413 34.8093 8.5 29.5773 8.5C24.3453 8.5 20.104 12.7413 20.104 17.9733C20.104 23.2053 24.3453 27.4466 29.5773 27.4466Z" fill="#84ACF5"/>
<path fill-rule="evenodd" clip-rule="evenodd" d="M41.5999 31.3513L41.2704 42.6356C41.2635 42.8718 41.3041 43.1071 41.3897 43.3273C41.4754 43.5476 41.6043 43.7484 41.769 43.918C41.9336 44.0875 42.1306 44.2223 42.3483 44.3143C42.566 44.4063 42.7999 44.4537 43.0362 44.4537H53.6213C53.862 44.4537 54.1001 44.4045 54.321 44.3092C54.542 44.2139 54.7412 44.0744 54.9063 43.8993C55.0714 43.7243 55.1991 43.5173 55.2813 43.2911C55.3636 43.065 55.3988 42.8244 55.3848 42.5841L54.7258 31.2999C54.7 30.8498 54.5029 30.4267 54.1749 30.1173C53.847 29.808 53.4132 29.6359 52.9624 29.6362H43.3654C42.9059 29.6365 42.4646 29.8158 42.135 30.1359C41.8054 30.4561 41.6135 30.892 41.5999 31.3513Z" fill="url(#paint1_linear_2479_17738)"/>
<path fill-rule="evenodd" clip-rule="evenodd" d="M41.2703 42.6357L41.5998 31.3514C41.6022 31.268 41.6105 31.1849 41.6246 31.1027C39.9731 30.5168 38.2447 30.0235 37.4388 30.1039C34.8254 32.3672 32.2049 33.4462 29.5774 33.341C26.9499 33.4462 24.3294 32.3672 21.716 30.104C11.0662 29.0405 6.67196 50.2912 18.222 51.7623H40.9328C44.243 51.3407 46.8554 47.7586 48.0233 44.4538H43.0361C42.7998 44.4538 42.5659 44.4064 42.3482 44.3144C42.1305 44.2224 41.9335 44.0876 41.7689 43.9181C41.6042 43.7485 41.4753 43.5477 41.3896 43.3274C41.304 43.1072 41.2634 42.872 41.2703 42.6357Z" fill="url(#paint2_linear_2479_17738)"/>
<path fill-rule="evenodd" clip-rule="evenodd" d="M20.7288 51.4536C20.7289 51.5594 20.7083 51.6642 20.668 51.762H19.1671C19.127 51.6641 19.1063 51.5594 19.1064 51.4536V42.9489C19.1064 42.7337 19.1919 42.5274 19.344 42.3753C19.4962 42.2232 19.7025 42.1377 19.9176 42.1377C20.1328 42.1377 20.3391 42.2232 20.4912 42.3753C20.6433 42.5274 20.7288 42.7337 20.7288 42.9489V51.4536Z" fill="#60B7FF"/>
<path fill-rule="evenodd" clip-rule="evenodd" d="M40.0485 51.4285C40.0484 51.5435 40.0239 51.6572 39.9764 51.762H38.4983C38.4508 51.6572 38.4262 51.5435 38.4261 51.4285V42.9489C38.4261 42.7337 38.5116 42.5274 38.6637 42.3753C38.8159 42.2232 39.0222 42.1377 39.2373 42.1377C39.4525 42.1377 39.6588 42.2232 39.8109 42.3753C39.963 42.5274 40.0485 42.7337 40.0485 42.9489V51.4285Z" fill="#60B7FF"/>
<path fill-rule="evenodd" clip-rule="evenodd" d="M51.9247 32.5836C51.9247 32.7987 51.8392 33.0051 51.6871 33.1572C51.535 33.3093 51.3287 33.3948 51.1135 33.3948C50.8984 33.3948 50.6921 33.3093 50.5399 33.1572C50.3878 33.0051 50.3023 32.7987 50.3023 32.5836V27.1217C50.3001 26.5559 50.0744 26.0138 49.6742 25.6137C49.2741 25.2136 48.7321 24.9879 48.1663 24.9856C47.6004 24.9879 47.0584 25.2136 46.6583 25.6137C46.2582 26.0138 46.0324 26.5559 46.0302 27.1217V32.5836C46.0302 32.7987 45.9447 33.0051 45.7926 33.1572C45.6405 33.3093 45.4341 33.3948 45.219 33.3948C45.0039 33.3948 44.7975 33.3093 44.6454 33.1572C44.4933 33.0051 44.4078 32.7987 44.4078 32.5836V27.1217C44.4102 26.1256 44.807 25.1711 45.5113 24.4667C46.2156 23.7624 47.1702 23.3657 48.1663 23.3633C49.1623 23.3657 50.1169 23.7624 50.8212 24.4667C51.5256 25.1711 51.9223 26.1256 51.9247 27.1217V32.5836Z" fill="#031E4E"/>
</g>
<defs>
<filter id="filter0_dd_2479_17738" x="0.259133" y="0.635971" width="61.5921" height="61.5921" filterUnits="userSpaceOnUse" color-interpolation-filters="sRGB">
<feFlood flood-opacity="0" result="BackgroundImageFix"/>
<feColorMatrix in="SourceAlpha" type="matrix" values="0 0 0 0 0 0 0 0 0 0 0 0 0 0 0 0 0 0 127 0" result="hardAlpha"/>
<feOffset dy="0.932014"/>
<feGaussianBlur stdDeviation="0.932014"/>
<feComposite in2="hardAlpha" operator="out"/>
<feColorMatrix type="matrix" values="0 0 0 0 0.0509804 0 0 0 0 0.0509804 0 0 0 0 0.0705882 0 0 0 0.04 0"/>
<feBlend mode="normal" in2="BackgroundImageFix" result="effect1_dropShadow_2479_17738"/>
<feColorMatrix in="SourceAlpha" type="matrix" values="0 0 0 0 0 0 0 0 0 0 0 0 0 0 0 0 0 0 127 0" result="hardAlpha"/>
<feOffset dy="0.932014"/>
<feGaussianBlur stdDeviation="1.39802"/>
<feComposite in2="hardAlpha" operator="out"/>
<feColorMatrix type="matrix" values="0 0 0 0 0.0509804 0 0 0 0 0.0509804 0 0 0 0 0.0705882 0 0 0 0.05 0"/>
<feBlend mode="normal" in2="effect1_dropShadow_2479_17738" result="effect2_dropShadow_2479_17738"/>
<feBlend mode="normal" in="SourceGraphic" in2="effect2_dropShadow_2479_17738" result="shape"/>
</filter>
<linearGradient id="paint0_linear_2479_17738" x1="28.8615" y1="-0.861539" x2="29.2923" y2="37.9077" gradientUnits="userSpaceOnUse">
<stop stop-color="white"/>
<stop offset="0.59" stop-color="#F9F9F9"/>
<stop offset="1" stop-color="#F2F2F2"/>
</linearGradient>
<linearGradient id="paint1_linear_2479_17738" x1="48.3302" y1="44.4578" x2="48.3302" y2="29.8522" gradientUnits="userSpaceOnUse">
<stop stop-color="#0026FF"/>
<stop offset="1" stop-color="#0038FF"/>
</linearGradient>
<linearGradient id="paint2_linear_2479_17738" x1="29.7093" y1="51.7683" x2="29.7093" y2="30.3817" gradientUnits="userSpaceOnUse">
<stop stop-color="#004DFF"/>
<stop offset="1" stop-color="#009CFF"/>
</linearGradient>
</defs>
</svg>
