<svg width="500" height="500" viewBox="0 0 500 500" fill="none" xmlns="http://www.w3.org/2000/svg">
<g clip-path="url(#clip0_2565_8840)">
<rect width="500" height="500" fill="white"/>
<mask id="mask0_2565_8840" style="mask-type:luminance" maskUnits="userSpaceOnUse" x="-148" y="-10" width="797" height="531">
<path d="M648.5 -10H-148V521H648.5V-10Z" fill="white"/>
</mask>
<g mask="url(#mask0_2565_8840)">
<path d="M648.5 -10H-148V521H648.5V-10Z" fill="#084BC4"/>
</g>
<path d="M645.683 155.784C603.24 140.871 561.944 164.96 534.413 197.079C520.648 211.992 511.471 232.64 511.471 253.288C469.028 253.288 405.937 263.612 393.319 309.496C365.788 309.496 322.198 309.496 311.874 340.468C296.962 327.85 272.873 345.056 264.843 337.027C235.018 311.79 198.311 303.76 167.339 323.261C154.721 291.142 118.013 288.848 89.3354 288.848C84.747 261.317 65.2461 226.904 33.1271 234.934C37.7155 182.167 6.7436 135.136 -36.8465 105.311C-73.4278 79.042 -118.452 69.6701 -160 80.2924V588.174H700.331V87.565C672.296 98.8296 650.902 124.445 645.683 155.784Z" fill="url(#paint0_linear_2565_8840)"/>
<g filter="url(#filter0_dd_2565_8840)">
<path d="M322.296 449.722H178.748C155.853 449.722 136.789 432.05 135.135 409.2L122.121 232.964C120.249 207.589 140.315 186 165.734 186H335.266C360.685 186 380.751 207.589 378.879 232.964L365.865 409.2C364.167 432.05 345.147 449.722 322.252 449.722H322.296Z" fill="url(#paint1_linear_2565_8840)"/>
<path d="M234.991 391.704C241.852 399.759 257.526 405.737 271.836 408.697C270.066 406.046 264.103 399.212 264.103 399.212C266.768 399.498 289.1 398.406 293.068 397.968C297.038 397.529 309.758 397.325 319.581 381.11C329.405 364.894 325.081 372.083 328.421 365.692C322.854 370.966 318.602 367.464 310.728 377.261C310.728 377.261 313.923 366.798 307.914 362.71C307.44 365.6 304.931 369.429 302.693 371.794C297.794 376.981 294.347 379.103 288.057 380.958C287.318 381.173 286.744 381.271 286.08 381.218C286.08 381.218 259.774 385.696 261.709 383.649C278.225 362.032 247.912 392.333 234.991 391.704Z" fill="url(#paint2_linear_2565_8840)"/>
<path d="M223.776 244.297C213.411 242.172 197.378 247.108 184.278 253.583C187.305 254.584 196.212 256.299 196.212 256.299C193.934 257.715 177.007 272.319 174.149 275.108C171.291 277.897 161.391 285.887 163.63 304.714C165.869 323.54 164.851 315.213 166.153 322.306C167.295 314.722 172.802 314.865 172.976 302.298C172.976 302.298 176.899 312.51 184.151 312.033C182.746 309.464 182.366 304.902 182.673 301.66C183.341 294.558 184.753 290.763 188.569 285.43C189.018 284.805 189.41 284.374 189.966 284.008C189.966 284.008 207.943 264.287 207.677 267.09C207.965 294.294 213.206 251.755 223.776 244.297Z" fill="url(#paint3_linear_2565_8840)"/>
<path d="M313.384 273.721C312.904 263.152 304.189 248.818 294.701 237.704C294.472 240.884 294.992 249.939 294.992 249.939C293.062 248.078 274.754 235.246 271.349 233.159C267.946 231.071 257.773 223.432 240.07 230.217C222.366 237.002 230.189 233.974 223.632 236.974C231.264 236.223 232.475 241.597 244.702 238.685C244.702 238.685 235.763 244.992 238.003 251.905C240.149 249.914 244.479 248.427 247.697 247.931C254.747 246.838 258.771 247.276 264.877 249.669C265.593 249.951 266.107 250.225 266.598 250.675C266.598 250.675 290.124 263.27 287.341 263.699C261.037 270.646 303.564 265.301 313.384 273.721Z" fill="url(#paint4_linear_2565_8840)"/>
<path d="M314.806 362.302C324.577 358.245 335.076 345.161 342.286 332.45C339.218 333.32 330.884 336.9 330.884 336.9C331.975 334.45 337.789 312.862 338.589 308.949C339.389 305.037 343.098 292.868 330.678 278.543C318.259 264.217 323.776 270.538 318.717 265.398C322.029 272.316 317.391 275.288 324.3 285.787C324.3 285.787 315.321 279.537 309.587 284.002C312.191 285.34 315.066 288.902 316.632 291.758C320.064 298.011 321.026 301.944 320.86 308.499C320.839 309.269 320.757 309.845 320.503 310.461C320.503 310.461 316.691 336.873 315.339 334.402C299.831 312.049 319.368 350.198 314.806 362.302Z" fill="url(#paint5_linear_2565_8840)"/>
<path d="M173.03 324.568C168.296 334.03 168.916 350.794 171.78 365.123C173.531 362.458 177.492 354.299 177.492 354.299C178.27 356.866 187.997 376.995 189.952 380.478C191.906 383.959 197.063 395.589 215.828 398.297C234.592 401.006 226.285 399.835 233.473 400.412C226.444 397.348 228.007 392.065 215.912 388.646C215.912 388.646 226.791 387.498 228.207 380.369C225.362 381.061 220.857 380.249 217.805 379.113C211.118 376.63 207.818 374.284 203.653 369.219C203.166 368.624 202.851 368.133 202.641 367.501C202.641 367.501 188.243 345.034 190.882 346.016C217.234 352.777 177.5 336.707 173.03 324.568Z" fill="url(#paint6_linear_2565_8840)"/>
<path d="M252.807 364.574C278.629 363.784 298.922 342.211 298.132 316.389C297.343 290.567 275.77 270.274 249.947 271.063C224.125 271.853 203.833 293.426 204.622 319.248C205.412 345.071 226.985 365.363 252.807 364.574Z" fill="#C2D8FF"/>
<path d="M252.997 356.818C274.101 356.173 290.677 338.251 290.021 316.789C289.364 295.327 271.724 278.452 250.62 279.098C229.517 279.743 212.941 297.665 213.597 319.127C214.253 340.589 231.894 357.464 252.997 356.818Z" fill="#86B1FF"/>
<path d="M252.571 344.67C267.964 344.199 280.055 331.126 279.576 315.471C279.097 299.817 266.23 287.507 250.837 287.978C235.443 288.449 223.352 301.521 223.831 317.176C224.31 332.831 237.177 345.14 252.571 344.67Z" fill="url(#paint7_linear_2565_8840)"/>
</g>
<g filter="url(#filter1_d_2565_8840)">
<path d="M96.7504 161V92.2H120.65L134.35 133H135.05L148.75 92.2H172.55V161H155.85V116.3H155.15L140.25 161H128.55L113.75 116.3H112.95V161H96.7504ZM187.789 161V92.2H205.189V161H187.789ZM234.028 161V106.2H215.228V92.2H270.328V106.2H251.428V161H234.028ZM280.219 161V92.2H314.319C318.786 92.2 322.386 92.7 325.119 93.7C327.919 94.6333 330.019 96.0667 331.419 98C332.886 99.8667 333.852 102.2 334.319 105C334.852 107.733 335.119 110.867 335.119 114.4C335.119 117 334.919 119.633 334.519 122.3C334.119 124.9 333.252 127.3 331.919 129.5C330.652 131.633 328.686 133.267 326.019 134.4L336.419 161H318.319L308.619 133.5L313.019 135.9C312.419 136.233 311.786 136.433 311.119 136.5C310.519 136.567 309.752 136.6 308.819 136.6H297.619V161H280.219ZM297.619 123.7H307.619C309.886 123.7 311.686 123.6 313.019 123.4C314.419 123.133 315.452 122.667 316.119 122C316.786 121.333 317.219 120.4 317.419 119.2C317.619 118 317.719 116.467 317.719 114.6C317.719 112.667 317.619 111.1 317.419 109.9C317.286 108.7 316.886 107.8 316.219 107.2C315.619 106.533 314.619 106.067 313.219 105.8C311.886 105.533 310.019 105.4 307.619 105.4H297.619V123.7ZM342.107 161L363.907 92.2H387.607L409.507 161H391.907L387.807 147.5H363.307L359.307 161H342.107ZM367.007 134.4H384.007L375.807 107.2H375.107L367.007 134.4Z" fill="white"/>
</g>
</g>
<defs>
<filter id="filter0_dd_2565_8840" x="94.4643" y="186" width="312.071" height="318.793" filterUnits="userSpaceOnUse" color-interpolation-filters="sRGB">
<feFlood flood-opacity="0" result="BackgroundImageFix"/>
<feColorMatrix in="SourceAlpha" type="matrix" values="0 0 0 0 0 0 0 0 0 0 0 0 0 0 0 0 0 0 127 0" result="hardAlpha"/>
<feMorphology radius="4.58929" operator="erode" in="SourceAlpha" result="effect1_dropShadow_2565_8840"/>
<feOffset dy="9.17857"/>
<feGaussianBlur stdDeviation="6.88393"/>
<feComposite in2="hardAlpha" operator="out"/>
<feColorMatrix type="matrix" values="0 0 0 0 0.0509804 0 0 0 0 0.0509804 0 0 0 0 0.0705882 0 0 0 0.03 0"/>
<feBlend mode="normal" in2="BackgroundImageFix" result="effect1_dropShadow_2565_8840"/>
<feColorMatrix in="SourceAlpha" type="matrix" values="0 0 0 0 0 0 0 0 0 0 0 0 0 0 0 0 0 0 127 0" result="hardAlpha"/>
<feMorphology radius="9.17857" operator="erode" in="SourceAlpha" result="effect2_dropShadow_2565_8840"/>
<feOffset dy="27.5357"/>
<feGaussianBlur stdDeviation="18.3571"/>
<feComposite in2="hardAlpha" operator="out"/>
<feColorMatrix type="matrix" values="0 0 0 0 0.0509804 0 0 0 0 0.0509804 0 0 0 0 0.0705882 0 0 0 0.08 0"/>
<feBlend mode="normal" in2="effect1_dropShadow_2565_8840" result="effect2_dropShadow_2565_8840"/>
<feBlend mode="normal" in="SourceGraphic" in2="effect2_dropShadow_2565_8840" result="shape"/>
</filter>
<filter id="filter1_d_2565_8840" x="60.7504" y="80.2" width="384.756" height="140.8" filterUnits="userSpaceOnUse" color-interpolation-filters="sRGB">
<feFlood flood-opacity="0" result="BackgroundImageFix"/>
<feColorMatrix in="SourceAlpha" type="matrix" values="0 0 0 0 0 0 0 0 0 0 0 0 0 0 0 0 0 0 127 0" result="hardAlpha"/>
<feMorphology radius="12" operator="erode" in="SourceAlpha" result="effect1_dropShadow_2565_8840"/>
<feOffset dy="24"/>
<feGaussianBlur stdDeviation="24"/>
<feComposite in2="hardAlpha" operator="out"/>
<feColorMatrix type="matrix" values="0 0 0 0 0.0509804 0 0 0 0 0.0509804 0 0 0 0 0.0705882 0 0 0 0.12 0"/>
<feBlend mode="normal" in2="BackgroundImageFix" result="effect1_dropShadow_2565_8840"/>
<feBlend mode="normal" in="SourceGraphic" in2="effect1_dropShadow_2565_8840" result="shape"/>
</filter>
<linearGradient id="paint0_linear_2565_8840" x1="270.254" y1="588.315" x2="270.254" y2="83.4657" gradientUnits="userSpaceOnUse">
<stop stop-color="#004DFF"/>
<stop offset="1" stop-color="#009CFF"/>
</linearGradient>
<linearGradient id="paint1_linear_2565_8840" x1="250.522" y1="449.722" x2="250.522" y2="185.956" gradientUnits="userSpaceOnUse">
<stop stop-color="#DBDCDF"/>
<stop offset="0.65" stop-color="#E7E8E9"/>
<stop offset="0.93" stop-color="#EFEFF0"/>
</linearGradient>
<linearGradient id="paint2_linear_2565_8840" x1="303.131" y1="348.464" x2="261.555" y2="409.581" gradientUnits="userSpaceOnUse">
<stop stop-color="#0434A1"/>
<stop offset="1" stop-color="#009CFF"/>
</linearGradient>
<linearGradient id="paint3_linear_2565_8840" x1="196.689" y1="320.319" x2="191.838" y2="246.558" gradientUnits="userSpaceOnUse">
<stop stop-color="#0434A1"/>
<stop offset="1" stop-color="#009CFF"/>
</linearGradient>
<linearGradient id="paint4_linear_2565_8840" x1="233.043" y1="266.092" x2="303.364" y2="243.311" gradientUnits="userSpaceOnUse">
<stop stop-color="#0434A1"/>
<stop offset="1" stop-color="#009CFF"/>
</linearGradient>
<linearGradient id="paint5_linear_2565_8840" x1="294.559" y1="284.181" x2="339.971" y2="342.507" gradientUnits="userSpaceOnUse">
<stop stop-color="#0434A1"/>
<stop offset="1" stop-color="#009CFF"/>
</linearGradient>
<linearGradient id="paint6_linear_2565_8840" x1="239.454" y1="370.402" x2="166.95" y2="356.003" gradientUnits="userSpaceOnUse">
<stop stop-color="#0434A1"/>
<stop offset="1" stop-color="#009CFF"/>
</linearGradient>
<linearGradient id="paint7_linear_2565_8840" x1="252.576" y1="344.67" x2="250.867" y2="288.789" gradientUnits="userSpaceOnUse">
<stop stop-color="#003CFF"/>
<stop offset="1" stop-color="#0097FF"/>
</linearGradient>
<clipPath id="clip0_2565_8840">
<rect width="500" height="500" fill="white"/>
</clipPath>
</defs>
</svg>
